<?xml version="1.0" encoding="utf-8"?>
<!-- Generator: Adobe Illustrator 16.0.0, SVG Export Plug-In . SVG Version: 6.00 Build 0)  -->
<!DOCTYPE svg PUBLIC "-//W3C//DTD SVG 1.1//EN" "http://www.w3.org/Graphics/SVG/1.1/DTD/svg11.dtd">
<svg version="1.1" id="Layer_1" xmlns="http://www.w3.org/2000/svg" xmlns:xlink="http://www.w3.org/1999/xlink" x="0px" y="0px"
	 width="25px" height="25px" viewBox="-0.5 -0.5 25 25" enable-background="new -0.5 -0.5 25 25" xml:space="preserve">
<circle fill="none" stroke="#fff" stroke-width="0.9531" stroke-miterlimit="10" cx="12.031" cy="12.028" r="11.438"/>
<path fill="#fff" d="M11.411,8.925c1.486,0.454,2.649,1.617,3.102,3.103c0.455-1.485,1.618-2.649,3.104-3.102
	c-1.485-0.454-2.648-1.617-3.104-3.103C14.061,7.308,12.897,8.471,11.411,8.925z M15.754,13.269c0.893,0.271,1.59,0.97,1.861,1.862
	c0.273-0.893,0.972-1.591,1.862-1.861c-0.891-0.273-1.589-0.97-1.862-1.862C17.344,12.298,16.646,12.996,15.754,13.269z
	 M12.031,16.682c0.743,0.228,1.325,0.809,1.551,1.552c0.227-0.744,0.809-1.324,1.553-1.552c-0.744-0.227-1.325-0.807-1.553-1.551
	C13.356,15.874,12.774,16.455,12.031,16.682z M8.308,11.549c0.324,0.408,0.694,0.777,1.102,1.102
	c-0.407,0.324-0.777,0.693-1.1,1.102c-0.324-0.409-0.693-0.779-1.102-1.104C7.616,12.325,7.984,11.956,8.308,11.549z M8.308,8.925
	c-0.543,1.782-1.941,3.18-3.723,3.723c1.785,0.547,3.18,1.941,3.726,3.727c0.543-1.784,1.94-3.18,3.721-3.727
	C10.251,12.106,8.854,10.708,8.308,8.925z"/>
</svg>
